HIERARCHY
ROOT Hips
{
 OFFSET 0.000000 0.000000 0.000000
 CHANNELS 6 Xposition Yposition Zposition Yrotation Xrotation Zrotation
 JOINT Chest
 {
  OFFSET 0.000000 9.585900 0.002600
  CHANNELS 3 Yrotation Xrotation Zrotation
  JOINT Chest2
  {
   OFFSET 0.000000 9.601200 -0.005300
   CHANNELS 3 Yrotation Xrotation Zrotation
   JOINT Chest3
   {
    OFFSET 0.000000 9.561800 0.000000
    CHANNELS 3 Yrotation Xrotation Zrotation
    JOINT Chest4
    {
     OFFSET 0.000000 9.552100 0.000000
     CHANNELS 3 Yrotation Xrotation Zrotation
     JOINT Neck
     {
      OFFSET 0.000000 14.453000 0.000000
      CHANNELS 3 Yrotation Xrotation Zrotation
      JOINT Head
      {
       OFFSET 0.000000 8.936500 -0.011300
       CHANNELS 3 Yrotation Xrotation Zrotation
       End Site
       {
        OFFSET 0.000000 17.073600 -0.006000
       }
      }
     }
     JOINT RightCollar
     {
      OFFSET -2.921100 9.558500 0.000000
      CHANNELS 3 Yrotation Xrotation Zrotation
      JOINT RightShoulder
      {
       OFFSET -13.519700 0.000000 0.000000
       CHANNELS 3 Yrotation Xrotation Zrotation
       JOINT RightElbow
       {
        OFFSET 0.000000 -29.696600 0.000000
        CHANNELS 3 Yrotation Xrotation Zrotation
        JOINT RightWrist
        {
         OFFSET 0.000000 -24.004700 0.000000
         CHANNELS 3 Yrotation Xrotation Zrotation
         End Site
         {
          OFFSET 0.000000 -17.728500 0.000000
         }
        }
       }
      }
     }
     JOINT LeftCollar
     {
      OFFSET 2.921100 9.558500 0.000000
      CHANNELS 3 Yrotation Xrotation Zrotation
      JOINT LeftShoulder
      {
       OFFSET 13.519700 0.000000 0.000000
       CHANNELS 3 Yrotation Xrotation Zrotation
       JOINT LeftElbow
       {
        OFFSET 0.000000 -29.696600 0.000000
        CHANNELS 3 Yrotation Xrotation Zrotation
        JOINT LeftWrist
        {
         OFFSET 0.000000 -24.004700 0.000000
         CHANNELS 3 Yrotation Xrotation Zrotation
         End Site
         {
          OFFSET 0.000000 -17.728500 0.000000
         }
        }
       }
      }
     }
    }
   }
  }
 }
 JOINT RightHip
 {
  OFFSET -7.771700 -0.012900 -0.001300
  CHANNELS 3 Yrotation Xrotation Zrotation
  JOINT RightKnee
  {
   OFFSET 0.000000 -40.869800 0.001200
   CHANNELS 3 Yrotation Xrotation Zrotation
   JOINT RightAnkle
   {
    OFFSET 0.000000 -39.717900 0.002100
    CHANNELS 3 Yrotation Xrotation Zrotation
    JOINT RightToe
    {
     OFFSET 0.000000 -4.965400 11.033500
     CHANNELS 3 Yrotation Xrotation Zrotation
     End Site
     {
      OFFSET 0.000000 -1.423100 5.872300
     }
    }
   }
  }
 }
 JOINT LeftHip
 {
  OFFSET 7.771700 -0.012900 -0.001300
  CHANNELS 3 Yrotation Xrotation Zrotation
  JOINT LeftKnee
  {
   OFFSET 0.000000 -40.869800 0.001200
   CHANNELS 3 Yrotation Xrotation Zrotation
   JOINT LeftAnkle
   {
    OFFSET 0.000000 -39.717900 0.002100
    CHANNELS 3 Yrotation Xrotation Zrotation
    JOINT LeftToe
    {
     OFFSET 0.000000 -4.965400 11.033500
     CHANNELS 3 Yrotation Xrotation Zrotation
     End Site
     {
      OFFSET 0.000000 -1.423100 5.872300
     }
    }
   }
  }
 }
}
MOTION
Frames: 15
Frame Time: 0.008333
-88.943350 44.503932 18.129897 174.441008 -17.669659 -0.921951 0.562505 16.897606 3.886276 0.035904 1.780207 0.405896 0.011674 2.978753 0.669635 0.358875 14.834928 3.406696 -1.228950 15.569408 -4.585231 -0.350994 -9.269381 -4.557302 8.162160 1.746058 -5.160726 -5.998218 -5.836710 -5.295742 -158.435219 -83.621210 178.774467 -4.117396 4.977838 -39.640428 -9.977704 -0.639460 -5.205695 13.888436 1.023957 3.205033 122.109079 -69.240560 -150.310889 20.877781 11.877482 43.174360 -5.579157 -74.342515 15.100755 -145.564988 70.137964 -144.445839 -10.751832 -22.144436 6.780282 0.048366 -0.202999 0.062579 5.600017 -57.538500 -2.043022 175.860184 58.722736 175.275703 -2.384493 -41.923635 3.526166 0.005747 0.033289 0.043610
-88.940876 44.525370 18.125599 174.419954 -17.644687 -0.922534 0.527566 16.889722 3.870619 0.046151 1.779855 0.406787 -0.025038 2.990484 0.670279 0.400209 14.824511 3.408884 -1.285010 15.584439 -4.597833 -0.297462 -9.288315 -4.591133 8.127417 1.759756 -5.152152 -5.938223 -5.863940 -5.311235 -158.381763 -83.622250 178.720183 -4.113841 4.975242 -39.631376 -9.944445 -0.648158 -5.215857 13.859766 1.060063 3.228180 122.121579 -69.208866 -150.322770 20.908776 11.902841 43.188440 -5.604857 -74.362742 15.139059 -145.527378 70.161609 -144.401490 -10.745592 -22.091094 6.772699 0.031076 -0.200134 0.040027 5.650679 -57.549649 -2.034104 175.886450 58.734218 175.303775 -2.405322 -41.911210 3.549838 0.001513 0.018392 0.050899
-88.941374 44.538504 18.121610 174.397109 -17.620431 -0.906781 0.523305 16.871494 3.852243 0.023567 1.786971 0.405971 0.008360 2.982407 0.671819 0.359844 14.840764 3.411084 -1.270239 15.576447 -4.614628 -0.298216 -9.288439 -4.608417 8.143248 1.758804 -5.161215 -5.916441 -5.876301 -5.313214 -158.361015 -83.622985 178.694582 -4.109307 4.972535 -39.608026 -9.922225 -0.651768 -5.222179 13.874988 1.056229 3.226228 122.016774 -69.218132 -150.262788 20.918426 11.900130 43.221312 -5.547051 -74.380204 15.087751 -145.526775 70.191984 -144.390919 -10.733826 -22.037196 6.764396 0.027739 -0.208416 0.024616 5.697860 -57.564118 -2.051474 175.896700 58.740462 175.312653 -2.408883 -41.902988 3.547641 -0.002083 0.011423 0.051502
-88.938640 44.542725 18.119387 174.334131 -17.592819 -0.900918 0.563582 16.848763 3.856328 0.000169 1.793212 0.403875 0.007308 2.985162 0.672560 0.344251 14.853885 3.413410 -1.223220 15.556831 -4.633631 -0.317561 -9.282959 -4.619275 8.170279 1.753993 -5.172578 -5.930215 -5.866557 -5.302002 -158.512175 -83.600925 178.878481 -4.103965 4.969822 -39.585835 -9.895519 -0.660914 -5.234985 13.887249 1.064688 3.233936 121.862710 -69.235354 -150.181301 20.898514 11.855692 43.273440 -5.492876 -74.396567 15.084959 -145.533390 70.226631 -144.372074 -10.725085 -21.982912 6.746373 0.043326 -0.222193 0.019002 5.784996 -57.590196 -2.041444 175.919251 58.734679 175.349967 -2.428808 -41.902784 3.559940 0.003171 0.005335 0.054156
-88.943716 44.538529 18.117791 174.284968 -17.560500 -0.854025 0.560215 16.831696 3.806241 -0.040735 1.807941 0.400407 0.004669 2.990339 0.673986 0.403211 14.833204 3.413899 -1.240792 15.560955 -4.641866 -0.307432 -9.292961 -4.635155 8.159068 1.759865 -5.168256 -5.918633 -5.868914 -5.302094 -158.615821 -83.587890 179.000393 -4.101248 4.966849 -39.576950 -9.904751 -0.657211 -5.241647 13.895300 1.079865 3.246652 121.842678 -69.225519 -150.179650 20.900512 11.865317 43.303251 -5.281805 -74.421713 14.902546 -145.557270 70.261613 -144.362436 -10.735763 -21.886710 6.716113 0.041031 -0.286547 0.026141 5.928767 -57.617833 -2.102893 175.977313 58.724817 175.392320 -2.455639 -41.915202 3.610883 -0.003174 0.008617 0.050285
-88.945825 44.528537 18.115160 174.245837 -17.539799 -0.826600 0.551483 16.825322 3.772963 -0.036877 1.807618 0.402332 0.003751 2.992606 0.674283 0.415933 14.830214 3.413854 -1.291081 15.571593 -4.649260 -0.250222 -9.315617 -4.656847 8.147247 1.762866 -5.161196 -5.907735 -5.868850 -5.304236 -158.709570 -83.568622 179.105422 -4.098753 4.968618 -39.564565 -9.953196 -0.637908 -5.239019 13.940117 1.078704 3.240582 121.878615 -69.210746 -150.213576 20.901920 11.889608 43.320413 -5.151142 -74.426468 14.789669 -145.581354 70.294861 -144.363828 -10.715189 -21.846804 6.691497 0.058331 -0.307122 0.027269 6.035768 -57.638228 -2.144862 176.008657 58.710838 175.424585 -2.475008 -41.931034 3.638399 -0.004009 0.016632 0.038562
-88.950149 44.514068 18.112748 174.203065 -17.518397 -0.782877 0.516083 16.826421 3.716395 -0.002401 1.798898 0.404971 0.003076 2.994310 0.674352 0.404794 14.838627 3.413049 -1.275435 15.561058 -4.660185 -0.241831 -9.321065 -4.665028 8.153384 1.756095 -5.158564 -5.901233 -5.868653 -5.305938 -158.751993 -83.556751 179.166645 -4.092051 4.964726 -39.556207 -9.942643 -0.640889 -5.240902 13.907376 1.127009 3.252531 122.002736 -69.167882 -150.300710 20.907343 11.908150 43.338038 -5.012540 -74.440437 14.682707 -145.575040 70.308112 -144.356025 -10.713343 -21.755606 6.679342 0.083820 -0.381492 0.034397 6.210506 -57.658920 -2.234975 176.042179 58.692219 175.473695 -2.522421 -41.953781 3.686149 0.008832 0.025771 0.046333
-88.951354 44.498036 18.107853 174.179621 -17.515208 -0.758711 0.506575 16.831816 3.688586 -0.002651 1.799521 0.404993 0.002606 2.995232 0.674257 0.376254 14.853604 3.412196 -1.231431 15.542911 -4.673679 -0.259541 -9.318487 -4.668801 8.172945 1.746449 -5.159904 -5.881732 -5.875414 -5.313372 -158.733869 -83.551860 179.154565 -4.083731 4.962829 -39.547116 -9.903470 -0.654926 -5.246781 13.885931 1.146756 3.256197 121.990945 -69.163098 -150.295334 20.915665 11.892488 43.358063 -4.952647 -74.433530 14.638234 -145.684618 70.332134 -144.452004 -10.768808 -21.759225 6.697612 0.117362 -0.382172 0.014358 6.301018 -57.665087 -2.277148 176.072601 58.670792 175.504835 -2.540703 -41.977887 3.716910 0.007550 0.033451 0.048211
-88.952669 44.482476 18.097895 174.195480 -17.543200 -0.738934 0.459355 16.866849 3.652329 -0.002761 1.799798 0.405058 0.002378 2.995637 0.674319 0.394349 14.850952 3.413492 -1.252099 15.549478 -4.673718 -0.258698 -9.318251 -4.674543 8.146881 1.752826 -5.149085 -5.864368 -5.882721 -5.319939 -158.632105 -83.552203 179.058037 -4.072361 4.942603 -39.544503 -9.911694 -0.648927 -5.243372 13.864562 1.160732 3.255965 121.861590 -69.167493 -150.200694 20.894002 11.843918 43.391005 -4.907911 -74.395531 14.568645 -145.974299 70.371673 -144.697976 -10.943196 -21.746049 6.697428 0.179222 -0.427187 0.018870 6.348505 -57.641333 -2.320596 176.100938 58.647385 175.530147 -2.560127 -42.002523 3.743975 0.010399 0.043912 0.043722
-88.951393 44.465557 18.091933 174.190342 -17.548152 -0.727442 0.438027 16.877237 3.630104 -0.003019 1.799957 0.405297 0.001998 2.995928 0.674739 0.394186 14.851850 3.414131 -1.254661 15.555524 -4.675887 -0.261075 -9.312000 -4.676358 8.140180 1.758012 -5.143502 -5.856276 -5.880192 -5.323654 -158.575759 -83.540932 179.021466 -4.086453 4.905170 -39.579818 -9.916777 -0.635656 -5.238683 13.859835 1.161739 3.248210 121.874574 -69.156868 -150.200012 20.909127 11.847743 43.396077 -4.910816 -74.384627 14.575081 -146.092684 70.386747 -144.806307 -11.009979 -21.766131 6.700785 0.217360 -0.429630 0.026668 6.377883 -57.645383 -2.332071 176.127094 58.622945 175.546746 -2.550216 -42.021589 3.736871 0.001112 0.052510 0.039163
-88.948014 44.448898 18.086259 174.181106 -17.552740 -0.725383 0.425311 16.887270 3.618901 -0.003379 1.800052 0.405558 0.001466 2.996091 0.675167 0.389914 14.852016 3.416422 -1.254469 15.564779 -4.679402 -0.286110 -9.277326 -4.673774 8.138263 1.762603 -5.141600 -5.849104 -5.879387 -5.323774 -158.409737 -83.537069 178.871088 -4.068397 4.884878 -39.598596 -9.938411 -0.611511 -5.234629 13.879613 1.148043 3.236216 121.879394 -69.146921 -150.196475 20.927490 11.858697 43.398466 -4.944415 -74.374652 14.619953 -146.193427 70.398565 -144.901070 -11.064934 -21.792984 6.711832 0.223917 -0.432359 0.031042 6.418183 -57.650254 -2.335425 176.154177 58.598034 175.577850 -2.562063 -42.043202 3.752223 0.000111 0.059339 0.042879
-88.944892 44.432666 18.080755 174.175851 -17.556391 -0.722673 0.413260 16.895223 3.608210 0.002221 1.799000 0.407375 -0.004700 2.997147 0.673784 0.354612 14.856901 3.414431 -1.230167 15.572329 -4.685289 -0.280585 -9.273734 -4.678424 8.175711 1.761638 -5.146980 -5.866454 -5.876137 -5.315530 -158.395609 -83.540653 178.887406 -4.062176 4.866859 -39.617267 -9.898445 -0.611531 -5.239938 13.875953 1.150666 3.235817 121.828048 -69.139532 -150.164000 20.936264 11.856071 43.408316 -4.967771 -74.365861 14.648334 -146.268141 70.408357 -144.975239 -11.103342 -21.784810 6.732973 0.280731 -0.471199 0.035900 6.467583 -57.655979 -2.351118 176.173118 58.572961 175.611669 -2.591716 -42.067233 3.768981 0.014773 0.070219 0.052444
-88.942457 44.416282 18.077686 174.135480 -17.545615 -0.707865 0.444926 16.885412 3.601941 -0.003582 1.800059 0.405640 0.001091 2.996137 0.675359 0.331807 14.859026 3.412262 -1.228635 15.582744 -4.688520 -0.262026 -9.281660 -4.684499 8.190178 1.763840 -5.147747 -5.874851 -5.873815 -5.305042 -158.428659 -83.551105 178.942342 -4.055237 4.849749 -39.623055 -9.881776 -0.606911 -5.241924 13.882925 1.146180 3.233510 121.733029 -69.131876 -150.117020 20.930454 11.849825 43.436695 -4.945711 -74.372822 14.664780 -146.301812 70.414039 -145.006912 -11.138653 -21.836920 6.795730 0.271773 -0.450742 0.000432 6.525210 -57.673694 -2.353126 176.193730 58.548402 175.628782 -2.599487 -42.087634 3.778986 0.009961 0.080719 0.040116
-88.940165 44.400630 18.074478 174.104136 -17.536677 -0.697048 0.445493 16.881419 3.584709 -0.003917 1.799948 0.405781 0.000488 2.995755 0.675434 0.342410 14.859454 3.416164 -1.236537 15.591835 -4.689626 -0.256700 -9.269714 -4.686985 8.188268 1.767286 -5.148482 -5.875322 -5.872515 -5.293335 -158.535495 -83.552421 179.070886 -4.060210 4.847783 -39.655477 -9.879566 -0.602158 -5.242248 13.885982 1.148554 3.233090 121.711089 -69.118740 -150.113350 20.953484 11.857345 43.423711 -4.928132 -74.381013 14.673751 -146.318672 70.415494 -145.024634 -11.132134 -21.868710 6.824506 0.275631 -0.477622 0.020095 6.584018 -57.688324 -2.352139 176.219916 58.524989 175.649150 -2.618450 -42.108877 3.804867 0.002140 0.086176 0.040695
-88.937647 44.385734 18.071332 174.083136 -17.528779 -0.693422 0.447293 16.879614 3.580090 -0.004334 1.799908 0.405832 -0.017001 2.997523 0.672268 0.373793 14.854307 3.418775 -1.267732 15.607044 -4.684179 -0.239201 -9.269365 -4.694700 8.175362 1.771828 -5.146923 -5.891560 -5.865521 -5.279247 -158.648478 -83.545601 179.217470 -4.064601 4.865598 -39.676260 -9.892571 -0.596349 -5.241905 13.896364 1.147268 3.232460 121.715997 -69.111397 -150.121979 20.951129 11.855734 43.409209 -4.926477 -74.388908 14.690822 -146.325509 70.413839 -145.029709 -11.123272 -21.889253 6.835429 0.264793 -0.485083 0.026444 6.621010 -57.704241 -2.348482 176.241349 58.503285 175.671396 -2.633833 -42.127211 3.821296 0.004732 0.092507 0.041245
